M48
;Layer_Color=6321
;FILE_FORMAT=2:5
INCH,LZ
;TYPE=PLATED
T1F00S00C0.02362
T2F00S00C0.02756
T3F00S00C0.02953
T4F00S00C0.03000
T5F00S00C0.03150
T6F00S00C0.03200
T7F00S00C0.03543
T8F00S00C0.04134
%
T01
X0295213Y0228347
X0303213
T02
X0294291Y0251969
X0304134
T03
X0314961Y0161102
Y0201102
X0295276
X0275591
X0255906
Y0161102
X0275591
X0295276
T04
X0326772Y0240157
Y0251969
Y026378
Y0275591
X0318617Y0299213
X0318695Y0310433
X0295276Y0305118
Y0277559
X0318617Y0322835
T05
X0161654Y0232835
X0171654
X0181654
X0191654
X0201654
X0211654
X0221654
X0231654
X0241654
X0251654
X0261654
X0271654
X0151654
X0141654
X0131654
X0121654
X0111654
X0101654
X0091654
X0081654
Y0322835
X0091654
X0101654
X0111654
X0121654
X0131654
X0141654
X0151654
X0161654
X0171654
X0181654
X0191654
X0201654
X0211654
X0221654
X0231654
X0241654
X0251654
X0261654
X0271654
X0274843Y0354331
X0284843
X0294843
X0264843
X0254843
X0244843
X0234843
X0224843
T06
X0180039Y0161417
X0190039
X0219409
X0229409
Y0200787
X0219409
X0190039
X0180039
T07
X0080236Y0166102
X0090236
X0100236
X0110236
X0120236
X0130236
X0140236
Y0196102
X0130236
X0120236
X0110236
X0100236
X0090236
X0080236
T08
X0084921Y0354331
X0094921
X0104921
X0114921
X0124921
X0134921
X0144921
X0154921
X0164921
X0174921
M30
