G04 Layer_Physical_Order=1*
G04 Layer_Color=25308*
%FSLAX25Y25*%
%MOIN*%
G70*
G01*
G75*
%ADD10R,0.59055X0.27559*%
%ADD11C,0.01181*%
%ADD12C,0.06000*%
%ADD13C,0.05512*%
%ADD14R,0.05906X0.05906*%
%ADD15C,0.05906*%
%ADD16C,0.06600*%
%ADD17R,0.07087X0.07087*%
%ADD18C,0.07087*%
%ADD19C,0.06102*%
%ADD20R,0.06102X0.06102*%
%ADD21R,0.04724X0.09843*%
%ADD22O,0.04724X0.09843*%
%ADD23C,0.05118*%
%ADD24C,0.06693*%
G36*
X332438Y61263D02*
X61263D01*
Y371808D01*
X332438D01*
Y61263D01*
D02*
G37*
%LPC*%
G36*
X194481Y200197D02*
X190630D01*
Y196345D01*
X191209Y196422D01*
X192299Y196873D01*
X193235Y197591D01*
X193954Y198528D01*
X194405Y199618D01*
X194481Y200197D01*
D02*
G37*
G36*
X189449D02*
X185597D01*
X185674Y199618D01*
X186125Y198528D01*
X186843Y197591D01*
X187779Y196873D01*
X188870Y196422D01*
X189449Y196345D01*
Y200197D01*
D02*
G37*
G36*
X228819D02*
X224967D01*
X225044Y199618D01*
X225495Y198528D01*
X226213Y197591D01*
X227150Y196873D01*
X228240Y196422D01*
X228819Y196345D01*
Y200197D01*
D02*
G37*
G36*
X314961Y205669D02*
X313779Y205513D01*
X312678Y205057D01*
X311732Y204331D01*
X311006Y203386D01*
X310550Y202284D01*
X310394Y201102D01*
X310550Y199920D01*
X311006Y198819D01*
X311732Y197873D01*
X312678Y197148D01*
X313779Y196691D01*
X314961Y196536D01*
X316143Y196691D01*
X317244Y197148D01*
X318190Y197873D01*
X318916Y198819D01*
X319372Y199920D01*
X319527Y201102D01*
X319372Y202284D01*
X318916Y203386D01*
X318190Y204331D01*
X317244Y205057D01*
X316143Y205513D01*
X314961Y205669D01*
D02*
G37*
G36*
X233851Y200197D02*
X230000D01*
Y196345D01*
X230579Y196422D01*
X231669Y196873D01*
X232605Y197591D01*
X233324Y198528D01*
X233775Y199618D01*
X233851Y200197D01*
D02*
G37*
G36*
X89646Y195512D02*
X86144D01*
X86209Y195023D01*
X86625Y194018D01*
X87288Y193154D01*
X88151Y192491D01*
X89157Y192075D01*
X89646Y192011D01*
Y195512D01*
D02*
G37*
G36*
X130236Y200272D02*
X129157Y200130D01*
X128151Y199713D01*
X127288Y199051D01*
X126625Y198187D01*
X126209Y197181D01*
X126067Y196102D01*
X126209Y195023D01*
X126625Y194018D01*
X127288Y193154D01*
X128151Y192491D01*
X129157Y192075D01*
X130236Y191933D01*
X131315Y192075D01*
X132321Y192491D01*
X133185Y193154D01*
X133847Y194018D01*
X134264Y195023D01*
X134406Y196102D01*
X134264Y197181D01*
X133847Y198187D01*
X133185Y199051D01*
X132321Y199713D01*
X131315Y200130D01*
X130236Y200272D01*
D02*
G37*
G36*
X94328Y195512D02*
X90827D01*
Y192011D01*
X91315Y192075D01*
X92321Y192491D01*
X93185Y193154D01*
X93847Y194018D01*
X94264Y195023D01*
X94328Y195512D01*
D02*
G37*
G36*
X219409Y205307D02*
X218240Y205153D01*
X217149Y204702D01*
X216213Y203983D01*
X215495Y203047D01*
X215044Y201957D01*
X214890Y200787D01*
X215044Y199618D01*
X215495Y198528D01*
X216213Y197591D01*
X217149Y196873D01*
X218240Y196422D01*
X219409Y196268D01*
X220579Y196422D01*
X221669Y196873D01*
X222605Y197591D01*
X223324Y198528D01*
X223775Y199618D01*
X223929Y200787D01*
X223775Y201957D01*
X223324Y203047D01*
X222605Y203983D01*
X221669Y204702D01*
X220579Y205153D01*
X219409Y205307D01*
D02*
G37*
G36*
X114328Y195512D02*
X110827D01*
Y192011D01*
X111315Y192075D01*
X112321Y192491D01*
X113184Y193154D01*
X113847Y194018D01*
X114264Y195023D01*
X114328Y195512D01*
D02*
G37*
G36*
X89646Y200194D02*
X89157Y200130D01*
X88151Y199713D01*
X87288Y199051D01*
X86625Y198187D01*
X86209Y197181D01*
X86144Y196693D01*
X89646D01*
Y200194D01*
D02*
G37*
G36*
X131654Y238967D02*
X130729Y238846D01*
X129867Y238489D01*
X129127Y237921D01*
X128559Y237181D01*
X128201Y236319D01*
X128080Y235394D01*
Y230276D01*
X128201Y229351D01*
X128559Y228489D01*
X129127Y227748D01*
X129867Y227181D01*
X130729Y226823D01*
X131654Y226702D01*
X132579Y226823D01*
X133440Y227181D01*
X134181Y227748D01*
X134749Y228489D01*
X135106Y229351D01*
X135228Y230276D01*
Y235394D01*
X135106Y236319D01*
X134749Y237181D01*
X134181Y237921D01*
X133440Y238489D01*
X132579Y238846D01*
X131654Y238967D01*
D02*
G37*
G36*
X121654D02*
X120729Y238846D01*
X119867Y238489D01*
X119126Y237921D01*
X118559Y237181D01*
X118201Y236319D01*
X118080Y235394D01*
Y230276D01*
X118201Y229351D01*
X118559Y228489D01*
X119126Y227748D01*
X119867Y227181D01*
X120729Y226823D01*
X121654Y226702D01*
X122579Y226823D01*
X123441Y227181D01*
X124181Y227748D01*
X124749Y228489D01*
X125106Y229351D01*
X125227Y230276D01*
Y235394D01*
X125106Y236319D01*
X124749Y237181D01*
X124181Y237921D01*
X123441Y238489D01*
X122579Y238846D01*
X121654Y238967D01*
D02*
G37*
G36*
X141654D02*
X140729Y238846D01*
X139867Y238489D01*
X139127Y237921D01*
X138558Y237181D01*
X138201Y236319D01*
X138080Y235394D01*
Y230276D01*
X138201Y229351D01*
X138558Y228489D01*
X139127Y227748D01*
X139867Y227181D01*
X140729Y226823D01*
X141654Y226702D01*
X142579Y226823D01*
X143440Y227181D01*
X144181Y227748D01*
X144749Y228489D01*
X145106Y229351D01*
X145228Y230276D01*
Y235394D01*
X145106Y236319D01*
X144749Y237181D01*
X144181Y237921D01*
X143440Y238489D01*
X142579Y238846D01*
X141654Y238967D01*
D02*
G37*
G36*
X161654D02*
X160729Y238846D01*
X159867Y238489D01*
X159126Y237921D01*
X158558Y237181D01*
X158202Y236319D01*
X158080Y235394D01*
Y230276D01*
X158202Y229351D01*
X158558Y228489D01*
X159126Y227748D01*
X159867Y227181D01*
X160729Y226823D01*
X161654Y226702D01*
X162579Y226823D01*
X163441Y227181D01*
X164181Y227748D01*
X164749Y228489D01*
X165106Y229351D01*
X165227Y230276D01*
Y235394D01*
X165106Y236319D01*
X164749Y237181D01*
X164181Y237921D01*
X163441Y238489D01*
X162579Y238846D01*
X161654Y238967D01*
D02*
G37*
G36*
X151654D02*
X150729Y238846D01*
X149867Y238489D01*
X149127Y237921D01*
X148558Y237181D01*
X148202Y236319D01*
X148080Y235394D01*
Y230276D01*
X148202Y229351D01*
X148558Y228489D01*
X149127Y227748D01*
X149867Y227181D01*
X150729Y226823D01*
X151654Y226702D01*
X152579Y226823D01*
X153440Y227181D01*
X154181Y227748D01*
X154749Y228489D01*
X155106Y229351D01*
X155227Y230276D01*
Y235394D01*
X155106Y236319D01*
X154749Y237181D01*
X154181Y237921D01*
X153440Y238489D01*
X152579Y238846D01*
X151654Y238967D01*
D02*
G37*
G36*
X110827Y200194D02*
Y196693D01*
X114328D01*
X114264Y197181D01*
X113847Y198187D01*
X113184Y199051D01*
X112321Y199713D01*
X111315Y200130D01*
X110827Y200194D01*
D02*
G37*
G36*
X90827D02*
Y196693D01*
X94328D01*
X94264Y197181D01*
X93847Y198187D01*
X93185Y199051D01*
X92321Y199713D01*
X91315Y200130D01*
X90827Y200194D01*
D02*
G37*
G36*
X228819Y205229D02*
X228240Y205153D01*
X227150Y204702D01*
X226213Y203983D01*
X225495Y203047D01*
X225044Y201957D01*
X224967Y201378D01*
X228819D01*
Y205229D01*
D02*
G37*
G36*
X294291Y255741D02*
X293315Y255612D01*
X292405Y255236D01*
X291624Y254636D01*
X291024Y253855D01*
X290648Y252945D01*
X290519Y251969D01*
X290648Y250992D01*
X291024Y250082D01*
X291624Y249301D01*
X292405Y248702D01*
X292485Y248669D01*
Y240521D01*
X292622Y239830D01*
X293014Y239244D01*
X293406Y238852D01*
Y231860D01*
X293227Y231786D01*
X292405Y231154D01*
X291774Y230332D01*
X291377Y229374D01*
X291242Y228347D01*
X291377Y227319D01*
X291774Y226361D01*
X292405Y225539D01*
X293227Y224908D01*
X294185Y224511D01*
X295213Y224376D01*
X296240Y224511D01*
X297198Y224908D01*
X298021Y225539D01*
X298652Y226361D01*
X298942Y227062D01*
X299483D01*
X299774Y226361D01*
X300405Y225539D01*
X301227Y224908D01*
X302185Y224511D01*
X302622Y224453D01*
Y228347D01*
Y232240D01*
X302185Y232182D01*
X301227Y231786D01*
X300405Y231154D01*
X299774Y230332D01*
X299483Y229631D01*
X298942D01*
X298652Y230332D01*
X298021Y231154D01*
X297198Y231786D01*
X297019Y231860D01*
Y239600D01*
X296882Y240291D01*
X296490Y240877D01*
X296098Y241269D01*
Y248669D01*
X296178Y248702D01*
X296959Y249301D01*
X297558Y250082D01*
X297935Y250992D01*
X298064Y251969D01*
X297935Y252945D01*
X297558Y253855D01*
X296959Y254636D01*
X296178Y255236D01*
X295268Y255612D01*
X294291Y255741D01*
D02*
G37*
G36*
X230000Y205229D02*
Y201378D01*
X233851D01*
X233775Y201957D01*
X233324Y203047D01*
X232605Y203983D01*
X231669Y204702D01*
X230579Y205153D01*
X230000Y205229D01*
D02*
G37*
G36*
X120236Y200272D02*
X119157Y200130D01*
X118151Y199713D01*
X117288Y199051D01*
X116625Y198187D01*
X116209Y197181D01*
X116067Y196102D01*
X116209Y195023D01*
X116625Y194018D01*
X117288Y193154D01*
X118151Y192491D01*
X119157Y192075D01*
X120236Y191933D01*
X121315Y192075D01*
X122321Y192491D01*
X123185Y193154D01*
X123847Y194018D01*
X124264Y195023D01*
X124406Y196102D01*
X124264Y197181D01*
X123847Y198187D01*
X123185Y199051D01*
X122321Y199713D01*
X121315Y200130D01*
X120236Y200272D01*
D02*
G37*
G36*
X262992Y133071D02*
X232874D01*
Y118701D01*
X262992D01*
Y133071D01*
D02*
G37*
G36*
X160827D02*
X130709D01*
Y118701D01*
X160827D01*
Y133071D01*
D02*
G37*
G36*
X294685D02*
X264567D01*
Y118701D01*
X294685D01*
Y133071D01*
D02*
G37*
G36*
X189449Y160827D02*
X185597D01*
X185674Y160248D01*
X186125Y159158D01*
X186843Y158221D01*
X187779Y157503D01*
X188870Y157052D01*
X189449Y156975D01*
Y160827D01*
D02*
G37*
G36*
X275591Y165669D02*
X274409Y165513D01*
X273307Y165057D01*
X272361Y164331D01*
X271636Y163386D01*
X271180Y162284D01*
X271024Y161102D01*
X271180Y159921D01*
X271636Y158819D01*
X272361Y157873D01*
X273307Y157148D01*
X274409Y156691D01*
X275591Y156536D01*
X276772Y156691D01*
X277874Y157148D01*
X278820Y157873D01*
X279545Y158819D01*
X280002Y159921D01*
X280157Y161102D01*
X280002Y162284D01*
X279545Y163386D01*
X278820Y164331D01*
X277874Y165057D01*
X276772Y165513D01*
X275591Y165669D01*
D02*
G37*
G36*
X160827Y117520D02*
X130709D01*
Y103150D01*
X160827D01*
Y117520D01*
D02*
G37*
G36*
X129134D02*
X99016D01*
Y103150D01*
X129134D01*
Y117520D01*
D02*
G37*
G36*
X262992D02*
X232874D01*
Y103150D01*
X262992D01*
Y117520D01*
D02*
G37*
G36*
X129134Y133071D02*
X99016D01*
Y118701D01*
X129134D01*
Y133071D01*
D02*
G37*
G36*
X294685Y117520D02*
X264567D01*
Y103150D01*
X294685D01*
Y117520D01*
D02*
G37*
G36*
X194481Y160827D02*
X190630D01*
Y156975D01*
X191209Y157052D01*
X192299Y157503D01*
X193235Y158221D01*
X193954Y159158D01*
X194405Y160248D01*
X194481Y160827D01*
D02*
G37*
G36*
X139646Y165512D02*
X136144D01*
X136209Y165023D01*
X136625Y164018D01*
X137288Y163154D01*
X138151Y162492D01*
X139157Y162075D01*
X139646Y162011D01*
Y165512D01*
D02*
G37*
G36*
X230000Y165859D02*
Y162008D01*
X233851D01*
X233775Y162587D01*
X233324Y163677D01*
X232605Y164613D01*
X231669Y165332D01*
X230579Y165783D01*
X230000Y165859D01*
D02*
G37*
G36*
X144328Y165512D02*
X140827D01*
Y162011D01*
X141315Y162075D01*
X142321Y162492D01*
X143184Y163154D01*
X143847Y164018D01*
X144264Y165023D01*
X144328Y165512D01*
D02*
G37*
G36*
X140827Y170194D02*
Y166693D01*
X144328D01*
X144264Y167182D01*
X143847Y168187D01*
X143184Y169051D01*
X142321Y169713D01*
X141315Y170130D01*
X140827Y170194D01*
D02*
G37*
G36*
X139646D02*
X139157Y170130D01*
X138151Y169713D01*
X137288Y169051D01*
X136625Y168187D01*
X136209Y167182D01*
X136144Y166693D01*
X139646D01*
Y170194D01*
D02*
G37*
G36*
X120236Y170272D02*
X119157Y170130D01*
X118151Y169713D01*
X117288Y169051D01*
X116625Y168187D01*
X116209Y167182D01*
X116067Y166102D01*
X116209Y165023D01*
X116625Y164018D01*
X117288Y163154D01*
X118151Y162492D01*
X119157Y162075D01*
X120236Y161933D01*
X121315Y162075D01*
X122321Y162492D01*
X123185Y163154D01*
X123847Y164018D01*
X124264Y165023D01*
X124406Y166102D01*
X124264Y167182D01*
X123847Y168187D01*
X123185Y169051D01*
X122321Y169713D01*
X121315Y170130D01*
X120236Y170272D01*
D02*
G37*
G36*
X100236D02*
X99157Y170130D01*
X98151Y169713D01*
X97288Y169051D01*
X96625Y168187D01*
X96209Y167182D01*
X96067Y166102D01*
X96209Y165023D01*
X96625Y164018D01*
X97288Y163154D01*
X98151Y162492D01*
X99157Y162075D01*
X100236Y161933D01*
X101315Y162075D01*
X102321Y162492D01*
X103184Y163154D01*
X103847Y164018D01*
X104264Y165023D01*
X104406Y166102D01*
X104264Y167182D01*
X103847Y168187D01*
X103184Y169051D01*
X102321Y169713D01*
X101315Y170130D01*
X100236Y170272D01*
D02*
G37*
G36*
X189449Y165859D02*
X188870Y165783D01*
X187779Y165332D01*
X186843Y164613D01*
X186125Y163677D01*
X185674Y162587D01*
X185597Y162008D01*
X189449D01*
Y165859D01*
D02*
G37*
G36*
X228819D02*
X228240Y165783D01*
X227150Y165332D01*
X226213Y164613D01*
X225495Y163677D01*
X225044Y162587D01*
X224967Y162008D01*
X228819D01*
Y165859D01*
D02*
G37*
G36*
X190630D02*
Y162008D01*
X194481D01*
X194405Y162587D01*
X193954Y163677D01*
X193235Y164613D01*
X192299Y165332D01*
X191209Y165783D01*
X190630Y165859D01*
D02*
G37*
G36*
X171654Y238967D02*
X170729Y238846D01*
X169867Y238489D01*
X169126Y237921D01*
X168559Y237181D01*
X168201Y236319D01*
X168080Y235394D01*
Y230276D01*
X168201Y229351D01*
X168559Y228489D01*
X169126Y227748D01*
X169867Y227181D01*
X170729Y226823D01*
X171654Y226702D01*
X172579Y226823D01*
X173441Y227181D01*
X174181Y227748D01*
X174749Y228489D01*
X175106Y229351D01*
X175227Y230276D01*
Y235394D01*
X175106Y236319D01*
X174749Y237181D01*
X174181Y237921D01*
X173441Y238489D01*
X172579Y238846D01*
X171654Y238967D01*
D02*
G37*
G36*
X229530Y353740D02*
X225433D01*
Y349643D01*
X226076Y349728D01*
X227225Y350204D01*
X228212Y350961D01*
X228969Y351948D01*
X229445Y353098D01*
X229530Y353740D01*
D02*
G37*
G36*
X224252D02*
X220155D01*
X220240Y353098D01*
X220716Y351948D01*
X221473Y350961D01*
X222460Y350204D01*
X223609Y349728D01*
X224252Y349643D01*
Y353740D01*
D02*
G37*
G36*
X114921Y358600D02*
X113816Y358454D01*
X112787Y358028D01*
X111903Y357349D01*
X111224Y356465D01*
X110798Y355436D01*
X110652Y354331D01*
X110798Y353226D01*
X110934Y352898D01*
X110376Y352341D01*
X109985Y351754D01*
X109847Y351063D01*
Y328474D01*
X109126Y327921D01*
X108558Y327181D01*
X108202Y326319D01*
X108080Y325394D01*
Y320275D01*
X108202Y319351D01*
X108558Y318489D01*
X109126Y317748D01*
X109867Y317180D01*
X110729Y316824D01*
X111654Y316702D01*
X112579Y316824D01*
X113441Y317180D01*
X114181Y317748D01*
X114749Y318489D01*
X115106Y319351D01*
X115227Y320275D01*
Y325394D01*
X115106Y326319D01*
X114749Y327181D01*
X114181Y327921D01*
X113460Y328474D01*
Y349814D01*
X113595Y349963D01*
X113960Y350188D01*
X114921Y350062D01*
X116026Y350207D01*
X117056Y350634D01*
X117940Y351312D01*
X118618Y352196D01*
X119044Y353226D01*
X119190Y354331D01*
X119044Y355436D01*
X118618Y356465D01*
X117940Y357349D01*
X117056Y358028D01*
X116026Y358454D01*
X114921Y358600D01*
D02*
G37*
G36*
X134921D02*
X133816Y358454D01*
X132787Y358028D01*
X131903Y357349D01*
X131224Y356465D01*
X130798Y355436D01*
X130652Y354331D01*
X130798Y353226D01*
X130934Y352898D01*
X130376Y352341D01*
X129985Y351754D01*
X129847Y351063D01*
Y328474D01*
X129127Y327921D01*
X128559Y327181D01*
X128201Y326319D01*
X128080Y325394D01*
Y320275D01*
X128201Y319351D01*
X128559Y318489D01*
X129127Y317748D01*
X129867Y317180D01*
X130729Y316824D01*
X131654Y316702D01*
X132579Y316824D01*
X133440Y317180D01*
X134181Y317748D01*
X134749Y318489D01*
X135106Y319351D01*
X135228Y320275D01*
Y325394D01*
X135106Y326319D01*
X134749Y327181D01*
X134181Y327921D01*
X133460Y328474D01*
Y349814D01*
X133595Y349963D01*
X133960Y350188D01*
X134921Y350062D01*
X136026Y350207D01*
X137056Y350634D01*
X137940Y351312D01*
X138618Y352196D01*
X139044Y353226D01*
X139190Y354331D01*
X139044Y355436D01*
X138618Y356465D01*
X137940Y357349D01*
X137056Y358028D01*
X136026Y358454D01*
X134921Y358600D01*
D02*
G37*
G36*
X124921D02*
X123816Y358454D01*
X122787Y358028D01*
X121903Y357349D01*
X121224Y356465D01*
X120798Y355436D01*
X120652Y354331D01*
X120798Y353226D01*
X120934Y352898D01*
X120376Y352341D01*
X119985Y351754D01*
X119847Y351063D01*
Y328474D01*
X119126Y327921D01*
X118559Y327181D01*
X118201Y326319D01*
X118080Y325394D01*
Y320275D01*
X118201Y319351D01*
X118559Y318489D01*
X119126Y317748D01*
X119867Y317180D01*
X120729Y316824D01*
X121654Y316702D01*
X122579Y316824D01*
X123441Y317180D01*
X124181Y317748D01*
X124749Y318489D01*
X125106Y319351D01*
X125227Y320275D01*
Y325394D01*
X125106Y326319D01*
X124749Y327181D01*
X124181Y327921D01*
X123460Y328474D01*
Y349814D01*
X123595Y349963D01*
X123960Y350188D01*
X124921Y350062D01*
X126026Y350207D01*
X127056Y350634D01*
X127940Y351312D01*
X128618Y352196D01*
X129044Y353226D01*
X129190Y354331D01*
X129044Y355436D01*
X128618Y356465D01*
X127940Y357349D01*
X127056Y358028D01*
X126026Y358454D01*
X124921Y358600D01*
D02*
G37*
G36*
X179154Y358563D02*
X170689D01*
Y352653D01*
X170376Y352341D01*
X169985Y351754D01*
X169847Y351063D01*
Y328474D01*
X169126Y327921D01*
X168559Y327181D01*
X168201Y326319D01*
X168080Y325394D01*
Y320275D01*
X168201Y319351D01*
X168559Y318489D01*
X169126Y317748D01*
X169867Y317180D01*
X170729Y316824D01*
X171654Y316702D01*
X172579Y316824D01*
X173441Y317180D01*
X174181Y317748D01*
X174749Y318489D01*
X175106Y319351D01*
X175227Y320275D01*
Y325394D01*
X175106Y326319D01*
X174749Y327181D01*
X174181Y327921D01*
X173460Y328474D01*
Y350098D01*
X179154D01*
Y358563D01*
D02*
G37*
G36*
X81654Y328967D02*
X80729Y328846D01*
X79867Y328489D01*
X79127Y327921D01*
X78558Y327181D01*
X78202Y326319D01*
X78080Y325394D01*
Y320275D01*
X78202Y319351D01*
X78558Y318489D01*
X79127Y317748D01*
X79867Y317180D01*
X80729Y316824D01*
X81654Y316702D01*
X82579Y316824D01*
X83441Y317180D01*
X84181Y317748D01*
X84749Y318489D01*
X85106Y319351D01*
X85228Y320275D01*
Y325394D01*
X85106Y326319D01*
X84749Y327181D01*
X84181Y327921D01*
X83441Y328489D01*
X82579Y328846D01*
X81654Y328967D01*
D02*
G37*
G36*
X181654D02*
X180729Y328846D01*
X179867Y328489D01*
X179127Y327921D01*
X178559Y327181D01*
X178201Y326319D01*
X178080Y325394D01*
Y320275D01*
X178201Y319351D01*
X178559Y318489D01*
X179127Y317748D01*
X179867Y317180D01*
X180729Y316824D01*
X181654Y316702D01*
X182579Y316824D01*
X183440Y317180D01*
X184181Y317748D01*
X184749Y318489D01*
X185106Y319351D01*
X185228Y320275D01*
Y325394D01*
X185106Y326319D01*
X184749Y327181D01*
X184181Y327921D01*
X183440Y328489D01*
X182579Y328846D01*
X181654Y328967D01*
D02*
G37*
G36*
X104921Y358600D02*
X103816Y358454D01*
X102787Y358028D01*
X101903Y357349D01*
X101224Y356465D01*
X100798Y355436D01*
X100652Y354331D01*
X100798Y353226D01*
X100934Y352898D01*
X100376Y352341D01*
X99985Y351754D01*
X99847Y351063D01*
Y328474D01*
X99126Y327921D01*
X98558Y327181D01*
X98202Y326319D01*
X98106Y325596D01*
X97606Y325629D01*
Y330721D01*
X97469Y331413D01*
X97077Y331998D01*
X96728Y332348D01*
Y350498D01*
X97056Y350634D01*
X97940Y351312D01*
X98618Y352196D01*
X99045Y353226D01*
X99190Y354331D01*
X99045Y355436D01*
X98618Y356465D01*
X97940Y357349D01*
X97056Y358028D01*
X96026Y358454D01*
X94921Y358600D01*
X93816Y358454D01*
X92787Y358028D01*
X91903Y357349D01*
X91224Y356465D01*
X90798Y355436D01*
X90652Y354331D01*
X90798Y353226D01*
X91224Y352196D01*
X91903Y351312D01*
X92787Y350634D01*
X93115Y350498D01*
Y331600D01*
X93252Y330909D01*
X93644Y330323D01*
X93994Y329973D01*
Y328630D01*
X93545Y328408D01*
X93441Y328489D01*
X92579Y328846D01*
X91654Y328967D01*
X90729Y328846D01*
X89867Y328489D01*
X89126Y327921D01*
X88559Y327181D01*
X88201Y326319D01*
X88080Y325394D01*
Y320275D01*
X88201Y319351D01*
X88559Y318489D01*
X89126Y317748D01*
X89867Y317180D01*
X90729Y316824D01*
X91654Y316702D01*
X92579Y316824D01*
X93441Y317180D01*
X93545Y317261D01*
X93994Y317040D01*
Y238630D01*
X93545Y238408D01*
X93441Y238489D01*
X92579Y238846D01*
X91654Y238967D01*
X90729Y238846D01*
X89867Y238489D01*
X89126Y237921D01*
X88559Y237181D01*
X88201Y236319D01*
X88080Y235394D01*
Y230276D01*
X88201Y229351D01*
X88559Y228489D01*
X89126Y227748D01*
X89847Y227195D01*
Y215302D01*
X75418Y200872D01*
X74956Y201064D01*
Y206801D01*
X82931Y214776D01*
X83323Y215362D01*
X83460Y216054D01*
Y227195D01*
X84181Y227748D01*
X84749Y228489D01*
X85106Y229351D01*
X85228Y230276D01*
Y235394D01*
X85106Y236319D01*
X84749Y237181D01*
X84181Y237921D01*
X83441Y238489D01*
X82579Y238846D01*
X81654Y238967D01*
X80729Y238846D01*
X79867Y238489D01*
X79127Y237921D01*
X78558Y237181D01*
X78202Y236319D01*
X78080Y235394D01*
Y230276D01*
X78202Y229351D01*
X78558Y228489D01*
X79127Y227748D01*
X79847Y227195D01*
Y216802D01*
X71872Y208827D01*
X71481Y208241D01*
X71343Y207550D01*
Y183189D01*
X71481Y182498D01*
X71872Y181912D01*
X83086Y170698D01*
X82894Y170236D01*
X76102D01*
Y164523D01*
X64923Y153343D01*
X64531Y152758D01*
X64394Y152066D01*
Y87914D01*
X64531Y87223D01*
X64923Y86637D01*
X66223Y85337D01*
X66809Y84945D01*
X67500Y84808D01*
X67716D01*
Y71654D01*
X129134D01*
Y101575D01*
X68006D01*
Y103150D01*
X97835D01*
Y118110D01*
Y133071D01*
X68006D01*
Y151318D01*
X78657Y161969D01*
X84370D01*
Y168761D01*
X84832Y168952D01*
X86324Y167460D01*
X86209Y167182D01*
X86067Y166102D01*
X86209Y165023D01*
X86625Y164018D01*
X87288Y163154D01*
X88151Y162492D01*
X89157Y162075D01*
X90236Y161933D01*
X91315Y162075D01*
X92321Y162492D01*
X93185Y163154D01*
X93847Y164018D01*
X94264Y165023D01*
X94406Y166102D01*
X94264Y167182D01*
X93847Y168187D01*
X93185Y169051D01*
X92321Y169713D01*
X91315Y170130D01*
X90236Y170272D01*
X89157Y170130D01*
X88879Y170015D01*
X74956Y183937D01*
Y191036D01*
X75418Y191227D01*
X76623Y190023D01*
X77209Y189631D01*
X77900Y189494D01*
X84290D01*
X106324Y167460D01*
X106209Y167182D01*
X106067Y166102D01*
X106209Y165023D01*
X106625Y164018D01*
X107288Y163154D01*
X108151Y162492D01*
X109157Y162075D01*
X110236Y161933D01*
X111315Y162075D01*
X112321Y162492D01*
X113184Y163154D01*
X113847Y164018D01*
X114264Y165023D01*
X114406Y166102D01*
X114264Y167182D01*
X113847Y168187D01*
X113184Y169051D01*
X112321Y169713D01*
X111315Y170130D01*
X110236Y170272D01*
X109157Y170130D01*
X108879Y170015D01*
X86316Y192577D01*
X85730Y192969D01*
X85039Y193106D01*
X83778D01*
X83531Y193606D01*
X83847Y194018D01*
X84264Y195023D01*
X84406Y196102D01*
X84264Y197181D01*
X84148Y197460D01*
X97077Y210389D01*
X97469Y210975D01*
X97606Y211666D01*
Y230041D01*
X98106Y230073D01*
X98202Y229351D01*
X98558Y228489D01*
X99126Y227748D01*
X99847Y227195D01*
Y219246D01*
X99985Y218555D01*
X100376Y217969D01*
X103394Y214952D01*
Y199521D01*
X102894Y199274D01*
X102321Y199713D01*
X101315Y200130D01*
X100236Y200272D01*
X99157Y200130D01*
X98151Y199713D01*
X97288Y199051D01*
X96625Y198187D01*
X96209Y197181D01*
X96067Y196102D01*
X96209Y195023D01*
X96625Y194018D01*
X97288Y193154D01*
X98151Y192491D01*
X99157Y192075D01*
X100236Y191933D01*
X101315Y192075D01*
X102321Y192491D01*
X102894Y192931D01*
X103394Y192684D01*
Y191139D01*
X103531Y190447D01*
X103923Y189861D01*
X126324Y167460D01*
X126209Y167182D01*
X126067Y166102D01*
X126209Y165023D01*
X126625Y164018D01*
X127288Y163154D01*
X128151Y162492D01*
X129157Y162075D01*
X130236Y161933D01*
X131315Y162075D01*
X132321Y162492D01*
X133185Y163154D01*
X133847Y164018D01*
X134264Y165023D01*
X134406Y166102D01*
X134264Y167182D01*
X133847Y168187D01*
X133185Y169051D01*
X132321Y169713D01*
X131315Y170130D01*
X130236Y170272D01*
X129157Y170130D01*
X128879Y170015D01*
X107006Y191887D01*
Y192740D01*
X107506Y192987D01*
X108151Y192491D01*
X109157Y192075D01*
X109646Y192011D01*
Y196102D01*
Y200194D01*
X109157Y200130D01*
X108151Y199713D01*
X107506Y199218D01*
X107006Y199465D01*
Y215700D01*
X106869Y216391D01*
X106477Y216977D01*
X103460Y219995D01*
Y227195D01*
X104181Y227748D01*
X104749Y228489D01*
X105106Y229351D01*
X105227Y230276D01*
Y235394D01*
X105106Y236319D01*
X104749Y237181D01*
X104181Y237921D01*
X103440Y238489D01*
X102579Y238846D01*
X101654Y238967D01*
X100729Y238846D01*
X99867Y238489D01*
X99126Y237921D01*
X98558Y237181D01*
X98202Y236319D01*
X98106Y235596D01*
X97606Y235629D01*
Y320040D01*
X98106Y320073D01*
X98202Y319351D01*
X98558Y318489D01*
X99126Y317748D01*
X99867Y317180D01*
X100729Y316824D01*
X101654Y316702D01*
X102579Y316824D01*
X103440Y317180D01*
X104181Y317748D01*
X104749Y318489D01*
X105106Y319351D01*
X105227Y320275D01*
Y325394D01*
X105106Y326319D01*
X104749Y327181D01*
X104181Y327921D01*
X103460Y328474D01*
Y349814D01*
X103595Y349963D01*
X103960Y350188D01*
X104921Y350062D01*
X106026Y350207D01*
X107056Y350634D01*
X107940Y351312D01*
X108618Y352196D01*
X109045Y353226D01*
X109190Y354331D01*
X109045Y355436D01*
X108618Y356465D01*
X107940Y357349D01*
X107056Y358028D01*
X106026Y358454D01*
X104921Y358600D01*
D02*
G37*
G36*
X191654Y328967D02*
X190729Y328846D01*
X189867Y328489D01*
X189127Y327921D01*
X188558Y327181D01*
X188201Y326319D01*
X188080Y325394D01*
Y320275D01*
X188201Y319351D01*
X188558Y318489D01*
X189127Y317748D01*
X189867Y317180D01*
X190729Y316824D01*
X191654Y316702D01*
X192579Y316824D01*
X193440Y317180D01*
X194181Y317748D01*
X194749Y318489D01*
X195106Y319351D01*
X195228Y320275D01*
Y325394D01*
X195106Y326319D01*
X194749Y327181D01*
X194181Y327921D01*
X193440Y328489D01*
X192579Y328846D01*
X191654Y328967D01*
D02*
G37*
G36*
X84331Y358522D02*
X83816Y358454D01*
X82787Y358028D01*
X81903Y357349D01*
X81224Y356465D01*
X80798Y355436D01*
X80730Y354921D01*
X84331D01*
Y358522D01*
D02*
G37*
G36*
X266673Y364306D02*
X209154D01*
X208462Y364169D01*
X207876Y363777D01*
X200376Y356277D01*
X199985Y355691D01*
X199847Y355000D01*
Y328474D01*
X199127Y327921D01*
X198558Y327181D01*
X198202Y326319D01*
X198080Y325394D01*
Y320275D01*
X198202Y319351D01*
X198558Y318489D01*
X199127Y317748D01*
X199867Y317180D01*
X200729Y316824D01*
X201654Y316702D01*
X202579Y316824D01*
X203440Y317180D01*
X204181Y317748D01*
X204749Y318489D01*
X205106Y319351D01*
X205227Y320275D01*
Y325394D01*
X205106Y326319D01*
X204749Y327181D01*
X204181Y327921D01*
X203460Y328474D01*
Y354252D01*
X209902Y360694D01*
X265925D01*
X270479Y356140D01*
X270240Y355564D01*
X270124Y354687D01*
Y354687D01*
X270095Y354462D01*
X270092D01*
X270075D01*
X270046D01*
X269639D01*
X269610Y354462D01*
X269593Y354462D01*
X269590D01*
X269561Y354687D01*
Y354687D01*
X269445Y355564D01*
X268969Y356713D01*
X268212Y357700D01*
X267225Y358458D01*
X266076Y358934D01*
X264843Y359096D01*
X263609Y358934D01*
X262460Y358458D01*
X261473Y357700D01*
X260716Y356713D01*
X260240Y355564D01*
X260124Y354687D01*
Y354687D01*
X260095Y354462D01*
X260092D01*
X260075D01*
X260047D01*
X259639D01*
X259610Y354462D01*
X259593Y354462D01*
X259591D01*
X259561Y354687D01*
Y354687D01*
X259445Y355564D01*
X258969Y356713D01*
X258212Y357700D01*
X257225Y358458D01*
X256076Y358934D01*
X254843Y359096D01*
X253609Y358934D01*
X252460Y358458D01*
X251473Y357700D01*
X250716Y356713D01*
X250240Y355564D01*
X250124Y354687D01*
Y354687D01*
X250095Y354462D01*
X250092D01*
X250076D01*
X250046D01*
X249639D01*
X249610Y354462D01*
X249593Y354462D01*
X249590D01*
X249561Y354687D01*
Y354687D01*
X249445Y355564D01*
X248969Y356713D01*
X248212Y357700D01*
X247225Y358458D01*
X246076Y358934D01*
X244843Y359096D01*
X243609Y358934D01*
X242460Y358458D01*
X241473Y357700D01*
X240716Y356713D01*
X240240Y355564D01*
X240124Y354687D01*
Y354687D01*
X240095Y354462D01*
X240092D01*
X240075D01*
X240047D01*
X239639D01*
X239610Y354462D01*
X239593Y354462D01*
X239591D01*
X239561Y354687D01*
Y354687D01*
X239445Y355564D01*
X238969Y356713D01*
X238212Y357700D01*
X237225Y358458D01*
X236076Y358934D01*
X234843Y359096D01*
X233609Y358934D01*
X232460Y358458D01*
X231473Y357700D01*
X230716Y356713D01*
X230240Y355564D01*
X230124Y354687D01*
Y354687D01*
X230095Y354462D01*
X230095D01*
X230077Y354331D01*
X230095Y354199D01*
X230095D01*
X230124Y353975D01*
Y353975D01*
X230240Y353098D01*
X230716Y351948D01*
X231473Y350961D01*
X232460Y350204D01*
X233609Y349728D01*
X234843Y349566D01*
X236076Y349728D01*
X236652Y349967D01*
X239847Y346772D01*
Y328474D01*
X239126Y327921D01*
X238559Y327181D01*
X238201Y326319D01*
X238080Y325394D01*
Y320275D01*
X238201Y319351D01*
X238559Y318489D01*
X239126Y317748D01*
X239867Y317180D01*
X240729Y316824D01*
X240627Y316349D01*
X232681D01*
X232579Y316824D01*
X233440Y317180D01*
X234181Y317748D01*
X234749Y318489D01*
X235106Y319351D01*
X235227Y320275D01*
Y325394D01*
X235106Y326319D01*
X234749Y327181D01*
X234181Y327921D01*
X233440Y328489D01*
X232579Y328846D01*
X231654Y328967D01*
X230729Y328846D01*
X229867Y328489D01*
X229127Y327921D01*
X228558Y327181D01*
X228202Y326319D01*
X228080Y325394D01*
Y320275D01*
X228202Y319351D01*
X228558Y318489D01*
X229127Y317748D01*
X229867Y317180D01*
X230729Y316824D01*
X230627Y316349D01*
X222681D01*
X222579Y316824D01*
X223441Y317180D01*
X224181Y317748D01*
X224749Y318489D01*
X225106Y319351D01*
X225227Y320275D01*
Y325394D01*
X225106Y326319D01*
X224749Y327181D01*
X224181Y327921D01*
X223441Y328489D01*
X222579Y328846D01*
X221654Y328967D01*
X220729Y328846D01*
X219867Y328489D01*
X219127Y327921D01*
X218559Y327181D01*
X218201Y326319D01*
X218080Y325394D01*
Y320275D01*
X218201Y319351D01*
X218559Y318489D01*
X219127Y317748D01*
X219867Y317180D01*
X220729Y316824D01*
X220627Y316349D01*
X215359D01*
X214167Y317541D01*
X214181Y317748D01*
X214749Y318489D01*
X215106Y319351D01*
X215228Y320275D01*
Y325394D01*
X215106Y326319D01*
X214749Y327181D01*
X214181Y327921D01*
X213440Y328489D01*
X212579Y328846D01*
X211654Y328967D01*
X210729Y328846D01*
X209867Y328489D01*
X209126Y327921D01*
X208559Y327181D01*
X208202Y326319D01*
X208080Y325394D01*
Y320275D01*
X208202Y319351D01*
X208559Y318489D01*
X209126Y317748D01*
X209867Y317180D01*
X209915Y317161D01*
X209985Y316809D01*
X210376Y316223D01*
X213334Y313265D01*
X213920Y312874D01*
X214611Y312736D01*
X279385D01*
X280077Y312874D01*
X280662Y313265D01*
X286120Y318723D01*
X286511Y319309D01*
X286649Y320000D01*
Y349263D01*
X287149Y349470D01*
X308296Y328323D01*
X308882Y327931D01*
X309573Y327794D01*
X322852D01*
X325800Y324845D01*
Y299895D01*
X322541Y296636D01*
X322164Y296967D01*
X322270Y297104D01*
X322691Y298121D01*
X322835Y299213D01*
X322691Y300304D01*
X322270Y301321D01*
X321599Y302195D01*
X320726Y302865D01*
X319709Y303286D01*
X318617Y303430D01*
X317526Y303286D01*
X316509Y302865D01*
X315635Y302195D01*
X314965Y301321D01*
X314544Y300304D01*
X314400Y299213D01*
X314544Y298121D01*
X314669Y297819D01*
X305809Y288959D01*
X305418Y288373D01*
X305280Y287682D01*
Y283420D01*
X304867Y283379D01*
X304814Y283374D01*
X304789Y283371D01*
X304784Y283371D01*
X304718Y283684D01*
X304715Y283697D01*
Y283697D01*
X304656Y283994D01*
X304632Y284031D01*
Y313888D01*
X311772Y321028D01*
X314840D01*
X314965Y320726D01*
X315635Y319853D01*
X316509Y319182D01*
X317526Y318761D01*
X318617Y318617D01*
X319709Y318761D01*
X320726Y319182D01*
X321599Y319853D01*
X322270Y320726D01*
X322691Y321743D01*
X322835Y322835D01*
X322691Y323926D01*
X322270Y324943D01*
X321599Y325817D01*
X320726Y326487D01*
X319709Y326908D01*
X318617Y327052D01*
X317526Y326908D01*
X316509Y326487D01*
X315635Y325817D01*
X314965Y324943D01*
X314840Y324641D01*
X311024D01*
X310332Y324503D01*
X309746Y324112D01*
X301548Y315914D01*
X301156Y315328D01*
X301019Y314636D01*
Y283889D01*
X297926Y280796D01*
X297384Y281211D01*
X296367Y281632D01*
X295276Y281776D01*
X294184Y281632D01*
X293167Y281211D01*
X292294Y280541D01*
X291623Y279668D01*
X291202Y278650D01*
X291058Y277559D01*
X291202Y276467D01*
X291623Y275450D01*
X292294Y274577D01*
X293167Y273907D01*
X294184Y273485D01*
X295276Y273342D01*
X296367Y273485D01*
X296768Y273652D01*
X297051Y273228D01*
X270376Y246553D01*
X269985Y245967D01*
X269847Y245276D01*
Y238474D01*
X269127Y237921D01*
X268559Y237181D01*
X268201Y236319D01*
X268080Y235394D01*
Y230276D01*
X268201Y229351D01*
X268559Y228489D01*
X269127Y227748D01*
X269867Y227181D01*
X270729Y226823D01*
X271654Y226702D01*
X272579Y226823D01*
X273441Y227181D01*
X274181Y227748D01*
X274749Y228489D01*
X275106Y229351D01*
X275227Y230276D01*
Y235394D01*
X275106Y236319D01*
X274749Y237181D01*
X274181Y237921D01*
X273460Y238474D01*
Y244527D01*
X304103Y275170D01*
X304494Y275756D01*
X304632Y276447D01*
Y282574D01*
X304656Y282611D01*
X304715Y282908D01*
Y282908D01*
X304718Y282920D01*
X304784Y283234D01*
X304789Y283233D01*
X304814Y283231D01*
X304867Y283226D01*
X305280Y283185D01*
Y256048D01*
X304780Y255656D01*
X304724Y255663D01*
Y251969D01*
Y248274D01*
X305110Y248325D01*
X305518Y248494D01*
X305934Y248216D01*
Y231786D01*
X305485Y231565D01*
X305198Y231786D01*
X304240Y232182D01*
X303803Y232240D01*
Y228347D01*
Y224453D01*
X304240Y224511D01*
X305198Y224908D01*
X305485Y225128D01*
X305934Y224907D01*
Y222288D01*
X281436Y197791D01*
X279386D01*
X279140Y198291D01*
X279545Y198819D01*
X280002Y199920D01*
X280157Y201102D01*
X280002Y202284D01*
X279545Y203386D01*
X278820Y204331D01*
X277874Y205057D01*
X276772Y205513D01*
X275591Y205669D01*
X274409Y205513D01*
X273932Y205316D01*
X269388Y209860D01*
X268801Y210252D01*
X268110Y210389D01*
X250000D01*
X249309Y210252D01*
X248723Y209860D01*
X247148Y208285D01*
X246756Y207699D01*
X246619Y207008D01*
Y194475D01*
X246756Y193783D01*
X247148Y193198D01*
X259294Y181052D01*
Y164840D01*
X258794Y164593D01*
X258189Y165057D01*
X257087Y165513D01*
X255906Y165669D01*
X254724Y165513D01*
X253622Y165057D01*
X252677Y164331D01*
X251951Y163386D01*
X251753Y162909D01*
X245346D01*
X200577Y207677D01*
X199991Y208069D01*
X199300Y208206D01*
X150534D01*
X149843Y208069D01*
X149257Y207677D01*
X141594Y200014D01*
X141315Y200130D01*
X140236Y200272D01*
X139157Y200130D01*
X138879Y200014D01*
X113460Y225433D01*
Y227195D01*
X114181Y227748D01*
X114749Y228489D01*
X115106Y229351D01*
X115227Y230276D01*
Y235394D01*
X115106Y236319D01*
X114749Y237181D01*
X114181Y237921D01*
X113441Y238489D01*
X112579Y238846D01*
X111654Y238967D01*
X110729Y238846D01*
X109867Y238489D01*
X109126Y237921D01*
X108558Y237181D01*
X108202Y236319D01*
X108080Y235394D01*
Y230276D01*
X108202Y229351D01*
X108558Y228489D01*
X109126Y227748D01*
X109847Y227195D01*
Y224685D01*
X109985Y223994D01*
X110376Y223408D01*
X136324Y197460D01*
X136209Y197181D01*
X136067Y196102D01*
X136209Y195023D01*
X136625Y194018D01*
X137288Y193154D01*
X138151Y192491D01*
X139157Y192075D01*
X140236Y191933D01*
X141315Y192075D01*
X142321Y192491D01*
X143184Y193154D01*
X143847Y194018D01*
X144264Y195023D01*
X144406Y196102D01*
X144264Y197181D01*
X144148Y197460D01*
X151282Y204594D01*
X176861D01*
X177022Y204120D01*
X176843Y203983D01*
X176125Y203047D01*
X175674Y201957D01*
X175520Y200787D01*
X175674Y199618D01*
X175862Y199164D01*
X173623Y196925D01*
X173231Y196339D01*
X173094Y195648D01*
Y151600D01*
X173231Y150909D01*
X173623Y150323D01*
X190413Y133533D01*
X190221Y133071D01*
X162008D01*
Y118110D01*
Y103150D01*
X190994D01*
Y101575D01*
X130709D01*
Y71654D01*
X192126D01*
Y85069D01*
X192527Y85337D01*
X194077Y86887D01*
X194469Y87473D01*
X194606Y88164D01*
Y133700D01*
X194469Y134391D01*
X194077Y134977D01*
X176706Y152348D01*
Y157696D01*
X177206Y157943D01*
X177779Y157503D01*
X178870Y157052D01*
X180039Y156898D01*
X181209Y157052D01*
X182299Y157503D01*
X183235Y158221D01*
X183954Y159158D01*
X184405Y160248D01*
X184559Y161417D01*
X184405Y162587D01*
X183954Y163677D01*
X183235Y164613D01*
X182299Y165332D01*
X181209Y165783D01*
X180039Y165937D01*
X178870Y165783D01*
X177779Y165332D01*
X177206Y164892D01*
X176706Y165138D01*
Y194900D01*
X178416Y196609D01*
X178870Y196422D01*
X180039Y196268D01*
X181209Y196422D01*
X182299Y196873D01*
X183235Y197591D01*
X183954Y198528D01*
X184405Y199618D01*
X184559Y200787D01*
X184405Y201957D01*
X183954Y203047D01*
X183235Y203983D01*
X183057Y204120D01*
X183218Y204594D01*
X186861D01*
X187022Y204120D01*
X186843Y203983D01*
X186125Y203047D01*
X185674Y201957D01*
X185597Y201378D01*
X194481D01*
X194405Y201957D01*
X193954Y203047D01*
X193235Y203983D01*
X193057Y204120D01*
X193218Y204594D01*
X198552D01*
X243320Y159825D01*
X243906Y159433D01*
X244598Y159296D01*
X251753D01*
X251951Y158819D01*
X252421Y158206D01*
X252174Y157706D01*
X232712D01*
X232551Y158180D01*
X232605Y158221D01*
X233324Y159158D01*
X233775Y160248D01*
X233851Y160827D01*
X224967D01*
X225044Y160248D01*
X225495Y159158D01*
X226180Y158265D01*
X226114Y158033D01*
X225980Y157779D01*
X225642Y157739D01*
X223587Y159794D01*
X223775Y160248D01*
X223929Y161417D01*
X223775Y162587D01*
X223324Y163677D01*
X222605Y164613D01*
X221669Y165332D01*
X220579Y165783D01*
X219409Y165937D01*
X218240Y165783D01*
X217149Y165332D01*
X216213Y164613D01*
X215495Y163677D01*
X215044Y162587D01*
X214890Y161417D01*
X215044Y160248D01*
X215231Y159794D01*
X199623Y144185D01*
X199231Y143599D01*
X199094Y142908D01*
Y102500D01*
X199231Y101809D01*
X199623Y101223D01*
X201575Y99271D01*
Y71654D01*
X262992D01*
Y101575D01*
X204380D01*
X203267Y102688D01*
X203458Y103150D01*
X231693D01*
Y118110D01*
Y133071D01*
X202706D01*
Y142160D01*
X217786Y157239D01*
X218240Y157052D01*
X219409Y156898D01*
X220579Y157052D01*
X221033Y157239D01*
X223650Y154623D01*
X224236Y154231D01*
X224927Y154094D01*
X259500D01*
X260191Y154231D01*
X260777Y154623D01*
X262377Y156223D01*
X262769Y156809D01*
X262906Y157500D01*
Y181800D01*
X262827Y182199D01*
X263288Y182445D01*
X285908Y159825D01*
X286494Y159433D01*
X287185Y159296D01*
X291123D01*
X291321Y158819D01*
X292046Y157873D01*
X292992Y157148D01*
X294094Y156691D01*
X295276Y156536D01*
X296458Y156691D01*
X297559Y157148D01*
X298505Y157873D01*
X299230Y158819D01*
X299687Y159921D01*
X299842Y161102D01*
X299687Y162284D01*
X299230Y163386D01*
X298505Y164331D01*
X297559Y165057D01*
X296458Y165513D01*
X295276Y165669D01*
X294094Y165513D01*
X292992Y165057D01*
X292046Y164331D01*
X291321Y163386D01*
X291123Y162909D01*
X287933D01*
X254630Y196212D01*
X254878Y196671D01*
X255906Y196536D01*
X257087Y196691D01*
X257564Y196889D01*
X262109Y192345D01*
X262695Y191953D01*
X263386Y191816D01*
X272330D01*
X325694Y138452D01*
Y133071D01*
X295866D01*
Y118110D01*
Y103150D01*
X325694D01*
Y101575D01*
X264567D01*
Y71654D01*
X325984D01*
Y85141D01*
X326277Y85337D01*
X328777Y87837D01*
X329169Y88423D01*
X329306Y89114D01*
Y139200D01*
X329169Y139891D01*
X328777Y140477D01*
X312628Y156627D01*
X312911Y157051D01*
X313779Y156691D01*
X314961Y156536D01*
X316143Y156691D01*
X317244Y157148D01*
X318190Y157873D01*
X318916Y158819D01*
X319372Y159921D01*
X319527Y161102D01*
X319372Y162284D01*
X318916Y163386D01*
X318190Y164331D01*
X317244Y165057D01*
X316143Y165513D01*
X314961Y165669D01*
X313779Y165513D01*
X312678Y165057D01*
X311732Y164331D01*
X311006Y163386D01*
X310550Y162284D01*
X310394Y161102D01*
X310550Y159921D01*
X310909Y159052D01*
X310486Y158769D01*
X275539Y193716D01*
X275730Y194178D01*
X282184D01*
X282875Y194315D01*
X283461Y194707D01*
X290288Y201534D01*
X290737Y201312D01*
X290709Y201102D01*
X290865Y199920D01*
X291321Y198819D01*
X292046Y197873D01*
X292992Y197148D01*
X294094Y196691D01*
X295276Y196536D01*
X296458Y196691D01*
X297559Y197148D01*
X298505Y197873D01*
X299230Y198819D01*
X299687Y199920D01*
X299842Y201102D01*
X299687Y202284D01*
X299230Y203386D01*
X298505Y204331D01*
X297559Y205057D01*
X296458Y205513D01*
X295276Y205669D01*
X295065Y205641D01*
X294844Y206090D01*
X309017Y220263D01*
X309409Y220849D01*
X309546Y221540D01*
Y248702D01*
X309742Y248898D01*
X310133Y249483D01*
X310271Y250175D01*
Y253762D01*
X310133Y254454D01*
X309742Y255040D01*
X308893Y255889D01*
Y267506D01*
X309137Y267726D01*
X309630Y267579D01*
X309746Y267405D01*
X309815Y267359D01*
X309868Y267295D01*
X310106Y267165D01*
X310332Y267014D01*
X310414Y266997D01*
X310487Y266958D01*
X322634Y263176D01*
X322698Y262688D01*
X323119Y261671D01*
X323790Y260798D01*
X324663Y260127D01*
X325680Y259706D01*
X326772Y259562D01*
X327863Y259706D01*
X328880Y260127D01*
X329754Y260798D01*
X330424Y261671D01*
X330845Y262688D01*
X330989Y263780D01*
X330845Y264871D01*
X330424Y265888D01*
X329754Y266762D01*
X328880Y267432D01*
X327863Y267853D01*
X326772Y267997D01*
X325680Y267853D01*
X324663Y267432D01*
X323790Y266762D01*
X323689Y266631D01*
X312830Y270012D01*
Y281816D01*
X327700Y296687D01*
X328162Y296495D01*
Y294687D01*
X325623Y279641D01*
X324663Y279243D01*
X323790Y278573D01*
X323119Y277699D01*
X322698Y276682D01*
X322554Y275591D01*
X322698Y274499D01*
X323119Y273482D01*
X323790Y272609D01*
X324663Y271938D01*
X325680Y271517D01*
X326772Y271373D01*
X327863Y271517D01*
X328880Y271938D01*
X329754Y272609D01*
X330424Y273482D01*
X330845Y274499D01*
X330989Y275591D01*
X330845Y276682D01*
X330424Y277699D01*
X329754Y278573D01*
X329181Y279012D01*
X331750Y294235D01*
X331745Y294387D01*
X331775Y294536D01*
Y328831D01*
X331638Y329523D01*
X331246Y330109D01*
X305747Y355608D01*
X305160Y356000D01*
X304469Y356137D01*
X299567D01*
Y359055D01*
X290118D01*
Y352263D01*
X289656Y352072D01*
X289207Y352521D01*
X289445Y353098D01*
X289608Y354331D01*
X289445Y355564D01*
X288969Y356713D01*
X288212Y357700D01*
X287225Y358458D01*
X286076Y358934D01*
X284843Y359096D01*
X283609Y358934D01*
X282460Y358458D01*
X281473Y357700D01*
X280716Y356713D01*
X280240Y355564D01*
X280124Y354687D01*
Y354687D01*
X280095Y354462D01*
X280092D01*
X280076D01*
X280047D01*
X279639D01*
X279610Y354462D01*
X279593Y354462D01*
X279591D01*
X279561Y354687D01*
Y354687D01*
X279445Y355564D01*
X278969Y356713D01*
X278212Y357700D01*
X277225Y358458D01*
X276076Y358934D01*
X274843Y359096D01*
X273609Y358934D01*
X273033Y358695D01*
X267951Y363777D01*
X267365Y364169D01*
X266673Y364306D01*
D02*
G37*
G36*
X85512Y358522D02*
Y354921D01*
X89112D01*
X89044Y355436D01*
X88618Y356465D01*
X87940Y357349D01*
X87056Y358028D01*
X86026Y358454D01*
X85512Y358522D01*
D02*
G37*
G36*
X225433Y359018D02*
Y354921D01*
X229530D01*
X229445Y355564D01*
X228969Y356713D01*
X228212Y357700D01*
X227225Y358458D01*
X226076Y358934D01*
X225433Y359018D01*
D02*
G37*
G36*
X224252D02*
X223609Y358934D01*
X222460Y358458D01*
X221473Y357700D01*
X220716Y356713D01*
X220240Y355564D01*
X220155Y354921D01*
X224252D01*
Y359018D01*
D02*
G37*
G36*
X154921Y358600D02*
X153816Y358454D01*
X152787Y358028D01*
X151903Y357349D01*
X151224Y356465D01*
X150798Y355436D01*
X150652Y354331D01*
X150798Y353226D01*
X150934Y352898D01*
X150376Y352341D01*
X149985Y351754D01*
X149847Y351063D01*
Y328474D01*
X149127Y327921D01*
X148558Y327181D01*
X148202Y326319D01*
X148080Y325394D01*
Y320275D01*
X148202Y319351D01*
X148558Y318489D01*
X149127Y317748D01*
X149867Y317180D01*
X150729Y316824D01*
X151654Y316702D01*
X152579Y316824D01*
X153440Y317180D01*
X154181Y317748D01*
X154749Y318489D01*
X155106Y319351D01*
X155227Y320275D01*
Y325394D01*
X155106Y326319D01*
X154749Y327181D01*
X154181Y327921D01*
X153460Y328474D01*
Y349814D01*
X153595Y349963D01*
X153960Y350188D01*
X154921Y350062D01*
X156026Y350207D01*
X157056Y350634D01*
X157940Y351312D01*
X158618Y352196D01*
X159045Y353226D01*
X159190Y354331D01*
X159045Y355436D01*
X158618Y356465D01*
X157940Y357349D01*
X157056Y358028D01*
X156026Y358454D01*
X154921Y358600D01*
D02*
G37*
G36*
X144921D02*
X143816Y358454D01*
X142787Y358028D01*
X141903Y357349D01*
X141224Y356465D01*
X140798Y355436D01*
X140652Y354331D01*
X140798Y353226D01*
X140934Y352898D01*
X140376Y352341D01*
X139985Y351754D01*
X139847Y351063D01*
Y328474D01*
X139127Y327921D01*
X138558Y327181D01*
X138201Y326319D01*
X138080Y325394D01*
Y320275D01*
X138201Y319351D01*
X138558Y318489D01*
X139127Y317748D01*
X139867Y317180D01*
X140729Y316824D01*
X141654Y316702D01*
X142579Y316824D01*
X143440Y317180D01*
X144181Y317748D01*
X144749Y318489D01*
X145106Y319351D01*
X145228Y320275D01*
Y325394D01*
X145106Y326319D01*
X144749Y327181D01*
X144181Y327921D01*
X143460Y328474D01*
Y349814D01*
X143595Y349963D01*
X143960Y350188D01*
X144921Y350062D01*
X146026Y350207D01*
X147056Y350634D01*
X147940Y351312D01*
X148618Y352196D01*
X149045Y353226D01*
X149190Y354331D01*
X149045Y355436D01*
X148618Y356465D01*
X147940Y357349D01*
X147056Y358028D01*
X146026Y358454D01*
X144921Y358600D01*
D02*
G37*
G36*
X164921D02*
X163816Y358454D01*
X162787Y358028D01*
X161903Y357349D01*
X161224Y356465D01*
X160798Y355436D01*
X160652Y354331D01*
X160798Y353226D01*
X160934Y352898D01*
X160376Y352341D01*
X159985Y351754D01*
X159847Y351063D01*
Y328474D01*
X159126Y327921D01*
X158558Y327181D01*
X158202Y326319D01*
X158080Y325394D01*
Y320275D01*
X158202Y319351D01*
X158558Y318489D01*
X159126Y317748D01*
X159867Y317180D01*
X160729Y316824D01*
X161654Y316702D01*
X162579Y316824D01*
X163441Y317180D01*
X164181Y317748D01*
X164749Y318489D01*
X165106Y319351D01*
X165227Y320275D01*
Y325394D01*
X165106Y326319D01*
X164749Y327181D01*
X164181Y327921D01*
X163460Y328474D01*
Y349814D01*
X163595Y349963D01*
X163960Y350188D01*
X164921Y350062D01*
X166026Y350207D01*
X167056Y350634D01*
X167940Y351312D01*
X168618Y352196D01*
X169044Y353226D01*
X169190Y354331D01*
X169044Y355436D01*
X168618Y356465D01*
X167940Y357349D01*
X167056Y358028D01*
X166026Y358454D01*
X164921Y358600D01*
D02*
G37*
G36*
X89112Y353740D02*
X85512D01*
Y350140D01*
X86026Y350207D01*
X87056Y350634D01*
X87940Y351312D01*
X88618Y352196D01*
X89044Y353226D01*
X89112Y353740D01*
D02*
G37*
G36*
X84331D02*
X80730D01*
X80798Y353226D01*
X81224Y352196D01*
X81903Y351312D01*
X82787Y350634D01*
X83816Y350207D01*
X84331Y350140D01*
Y353740D01*
D02*
G37*
G36*
X319286Y314572D02*
Y311023D01*
X322835D01*
X322769Y311525D01*
X322347Y312542D01*
X321677Y313415D01*
X320804Y314085D01*
X319787Y314507D01*
X319286Y314572D01*
D02*
G37*
G36*
X251654Y238967D02*
X250729Y238846D01*
X249867Y238489D01*
X249127Y237921D01*
X248558Y237181D01*
X248201Y236319D01*
X248080Y235394D01*
Y230276D01*
X248201Y229351D01*
X248558Y228489D01*
X249127Y227748D01*
X249867Y227181D01*
X250729Y226823D01*
X251654Y226702D01*
X252579Y226823D01*
X253440Y227181D01*
X254181Y227748D01*
X254749Y228489D01*
X255106Y229351D01*
X255227Y230276D01*
Y235394D01*
X255106Y236319D01*
X254749Y237181D01*
X254181Y237921D01*
X253440Y238489D01*
X252579Y238846D01*
X251654Y238967D01*
D02*
G37*
G36*
X241654D02*
X240729Y238846D01*
X239867Y238489D01*
X239126Y237921D01*
X238559Y237181D01*
X238201Y236319D01*
X238080Y235394D01*
Y230276D01*
X238201Y229351D01*
X238559Y228489D01*
X239126Y227748D01*
X239867Y227181D01*
X240729Y226823D01*
X241654Y226702D01*
X242579Y226823D01*
X243441Y227181D01*
X244181Y227748D01*
X244749Y228489D01*
X245106Y229351D01*
X245228Y230276D01*
Y235394D01*
X245106Y236319D01*
X244749Y237181D01*
X244181Y237921D01*
X243441Y238489D01*
X242579Y238846D01*
X241654Y238967D01*
D02*
G37*
G36*
X261654D02*
X260729Y238846D01*
X259867Y238489D01*
X259126Y237921D01*
X258559Y237181D01*
X258202Y236319D01*
X258080Y235394D01*
Y230276D01*
X258202Y229351D01*
X258559Y228489D01*
X259126Y227748D01*
X259867Y227181D01*
X260729Y226823D01*
X261654Y226702D01*
X262579Y226823D01*
X263440Y227181D01*
X264181Y227748D01*
X264749Y228489D01*
X265106Y229351D01*
X265228Y230276D01*
Y235394D01*
X265106Y236319D01*
X264749Y237181D01*
X264181Y237921D01*
X263440Y238489D01*
X262579Y238846D01*
X261654Y238967D01*
D02*
G37*
G36*
X326772Y256186D02*
X325680Y256042D01*
X324663Y255621D01*
X323790Y254951D01*
X323119Y254077D01*
X322698Y253060D01*
X322554Y251969D01*
X322698Y250877D01*
X323119Y249860D01*
X323790Y248987D01*
X324663Y248316D01*
X325680Y247895D01*
X326772Y247751D01*
X327863Y247895D01*
X328880Y248316D01*
X329754Y248987D01*
X330424Y249860D01*
X330845Y250877D01*
X330989Y251969D01*
X330845Y253060D01*
X330424Y254077D01*
X329754Y254951D01*
X328880Y255621D01*
X327863Y256042D01*
X326772Y256186D01*
D02*
G37*
G36*
Y244375D02*
X325680Y244231D01*
X324663Y243810D01*
X323790Y243139D01*
X323119Y242266D01*
X322698Y241249D01*
X322554Y240157D01*
X322698Y239066D01*
X323119Y238049D01*
X323790Y237175D01*
X324663Y236505D01*
X325680Y236084D01*
X326772Y235940D01*
X327863Y236084D01*
X328880Y236505D01*
X329754Y237175D01*
X330424Y238049D01*
X330845Y239066D01*
X330989Y240157D01*
X330845Y241249D01*
X330424Y242266D01*
X329754Y243139D01*
X328880Y243810D01*
X327863Y244231D01*
X326772Y244375D01*
D02*
G37*
G36*
X231654Y238967D02*
X230729Y238846D01*
X229867Y238489D01*
X229127Y237921D01*
X228558Y237181D01*
X228202Y236319D01*
X228080Y235394D01*
Y230276D01*
X228202Y229351D01*
X228558Y228489D01*
X229127Y227748D01*
X229867Y227181D01*
X230729Y226823D01*
X231654Y226702D01*
X232579Y226823D01*
X233440Y227181D01*
X234181Y227748D01*
X234749Y228489D01*
X235106Y229351D01*
X235227Y230276D01*
Y235394D01*
X235106Y236319D01*
X234749Y237181D01*
X234181Y237921D01*
X233440Y238489D01*
X232579Y238846D01*
X231654Y238967D01*
D02*
G37*
G36*
X191654D02*
X190729Y238846D01*
X189867Y238489D01*
X189127Y237921D01*
X188558Y237181D01*
X188201Y236319D01*
X188080Y235394D01*
Y230276D01*
X188201Y229351D01*
X188558Y228489D01*
X189127Y227748D01*
X189867Y227181D01*
X190729Y226823D01*
X191654Y226702D01*
X192579Y226823D01*
X193440Y227181D01*
X194181Y227748D01*
X194749Y228489D01*
X195106Y229351D01*
X195228Y230276D01*
Y235394D01*
X195106Y236319D01*
X194749Y237181D01*
X194181Y237921D01*
X193440Y238489D01*
X192579Y238846D01*
X191654Y238967D01*
D02*
G37*
G36*
X181654D02*
X180729Y238846D01*
X179867Y238489D01*
X179127Y237921D01*
X178559Y237181D01*
X178201Y236319D01*
X178080Y235394D01*
Y230276D01*
X178201Y229351D01*
X178559Y228489D01*
X179127Y227748D01*
X179867Y227181D01*
X180729Y226823D01*
X181654Y226702D01*
X182579Y226823D01*
X183440Y227181D01*
X184181Y227748D01*
X184749Y228489D01*
X185106Y229351D01*
X185228Y230276D01*
Y235394D01*
X185106Y236319D01*
X184749Y237181D01*
X184181Y237921D01*
X183440Y238489D01*
X182579Y238846D01*
X181654Y238967D01*
D02*
G37*
G36*
X201654D02*
X200729Y238846D01*
X199867Y238489D01*
X199127Y237921D01*
X198558Y237181D01*
X198202Y236319D01*
X198080Y235394D01*
Y230276D01*
X198202Y229351D01*
X198558Y228489D01*
X199127Y227748D01*
X199867Y227181D01*
X200729Y226823D01*
X201654Y226702D01*
X202579Y226823D01*
X203440Y227181D01*
X204181Y227748D01*
X204749Y228489D01*
X205106Y229351D01*
X205227Y230276D01*
Y235394D01*
X205106Y236319D01*
X204749Y237181D01*
X204181Y237921D01*
X203440Y238489D01*
X202579Y238846D01*
X201654Y238967D01*
D02*
G37*
G36*
X221654D02*
X220729Y238846D01*
X219867Y238489D01*
X219127Y237921D01*
X218559Y237181D01*
X218201Y236319D01*
X218080Y235394D01*
Y230276D01*
X218201Y229351D01*
X218559Y228489D01*
X219127Y227748D01*
X219867Y227181D01*
X220729Y226823D01*
X221654Y226702D01*
X222579Y226823D01*
X223441Y227181D01*
X224181Y227748D01*
X224749Y228489D01*
X225106Y229351D01*
X225227Y230276D01*
Y235394D01*
X225106Y236319D01*
X224749Y237181D01*
X224181Y237921D01*
X223441Y238489D01*
X222579Y238846D01*
X221654Y238967D01*
D02*
G37*
G36*
X211654D02*
X210729Y238846D01*
X209867Y238489D01*
X209126Y237921D01*
X208559Y237181D01*
X208202Y236319D01*
X208080Y235394D01*
Y230276D01*
X208202Y229351D01*
X208559Y228489D01*
X209126Y227748D01*
X209867Y227181D01*
X210729Y226823D01*
X211654Y226702D01*
X212579Y226823D01*
X213440Y227181D01*
X214181Y227748D01*
X214749Y228489D01*
X215106Y229351D01*
X215228Y230276D01*
Y235394D01*
X215106Y236319D01*
X214749Y237181D01*
X214181Y237921D01*
X213440Y238489D01*
X212579Y238846D01*
X211654Y238967D01*
D02*
G37*
G36*
X322835Y309842D02*
X319286D01*
Y306294D01*
X319787Y306360D01*
X320804Y306781D01*
X321677Y307451D01*
X322347Y308324D01*
X322769Y309342D01*
X322835Y309842D01*
D02*
G37*
G36*
X318105Y314572D02*
X317604Y314507D01*
X316587Y314085D01*
X315713Y313415D01*
X315043Y312542D01*
X314622Y311525D01*
X314556Y311023D01*
X318105D01*
Y314572D01*
D02*
G37*
G36*
Y309842D02*
X314556D01*
X314622Y309342D01*
X315043Y308324D01*
X315713Y307451D01*
X316587Y306781D01*
X317604Y306360D01*
X318105Y306294D01*
Y309842D01*
D02*
G37*
G36*
X295866Y309257D02*
Y305709D01*
X299415D01*
X299349Y306209D01*
X298928Y307227D01*
X298258Y308100D01*
X297384Y308770D01*
X296367Y309191D01*
X295866Y309257D01*
D02*
G37*
G36*
X294685D02*
X294184Y309191D01*
X293167Y308770D01*
X292294Y308100D01*
X291623Y307227D01*
X291202Y306209D01*
X291136Y305709D01*
X294685D01*
Y309257D01*
D02*
G37*
G36*
X303543Y255663D02*
X303157Y255612D01*
X302248Y255236D01*
X301466Y254636D01*
X300867Y253855D01*
X300490Y252945D01*
X300439Y252559D01*
X303543D01*
Y255663D01*
D02*
G37*
G36*
Y251378D02*
X300439D01*
X300490Y250992D01*
X300867Y250082D01*
X301466Y249301D01*
X302248Y248702D01*
X303157Y248325D01*
X303543Y248274D01*
Y251378D01*
D02*
G37*
G36*
X294685Y304527D02*
X291136D01*
X291202Y304027D01*
X291623Y303009D01*
X292294Y302136D01*
X293167Y301466D01*
X294184Y301045D01*
X294685Y300979D01*
Y304527D01*
D02*
G37*
G36*
X299415D02*
X295866D01*
Y300979D01*
X296367Y301045D01*
X297384Y301466D01*
X298258Y302136D01*
X298928Y303009D01*
X299349Y304027D01*
X299415Y304527D01*
D02*
G37*
%LPD*%
G36*
X280047Y354199D02*
X280076Y354199D01*
X280092Y354199D01*
X280095D01*
X280124Y353975D01*
Y353975D01*
X280240Y353098D01*
X280716Y351948D01*
X281473Y350961D01*
X282460Y350204D01*
X283036Y349965D01*
Y320748D01*
X278637Y316349D01*
X275479D01*
X275479Y316349D01*
X275197Y316732D01*
X275197Y316849D01*
Y322244D01*
X268110D01*
Y316849D01*
X268110Y316732D01*
X267828Y316349D01*
X262681D01*
X262579Y316824D01*
X263440Y317180D01*
X264181Y317748D01*
X264749Y318489D01*
X265106Y319351D01*
X265228Y320275D01*
Y325394D01*
X265106Y326319D01*
X264749Y327181D01*
X264181Y327921D01*
X263440Y328489D01*
X262579Y328846D01*
X261654Y328967D01*
X260729Y328846D01*
X259867Y328489D01*
X259126Y327921D01*
X258559Y327181D01*
X258202Y326319D01*
X258080Y325394D01*
Y320275D01*
X258202Y319351D01*
X258559Y318489D01*
X259126Y317748D01*
X259867Y317180D01*
X260729Y316824D01*
X260627Y316349D01*
X252681D01*
X252579Y316824D01*
X253440Y317180D01*
X254181Y317748D01*
X254749Y318489D01*
X255106Y319351D01*
X255227Y320275D01*
Y325394D01*
X255106Y326319D01*
X254749Y327181D01*
X254181Y327921D01*
X253440Y328489D01*
X252579Y328846D01*
X251654Y328967D01*
X250729Y328846D01*
X249867Y328489D01*
X249127Y327921D01*
X248558Y327181D01*
X248201Y326319D01*
X248080Y325394D01*
Y320275D01*
X248201Y319351D01*
X248558Y318489D01*
X249127Y317748D01*
X249867Y317180D01*
X250729Y316824D01*
X250627Y316349D01*
X242681D01*
X242579Y316824D01*
X243441Y317180D01*
X244181Y317748D01*
X244749Y318489D01*
X245106Y319351D01*
X245228Y320275D01*
Y325394D01*
X245106Y326319D01*
X244749Y327181D01*
X244181Y327921D01*
X243460Y328474D01*
Y347520D01*
X243322Y348211D01*
X242931Y348797D01*
X239207Y352521D01*
X239445Y353098D01*
X239561Y353975D01*
Y353975D01*
X239591Y354199D01*
X239593D01*
X239610D01*
X239639D01*
X240047D01*
X240075Y354199D01*
X240092Y354199D01*
X240095D01*
X240124Y353975D01*
Y353975D01*
X240240Y353098D01*
X240716Y351948D01*
X241473Y350961D01*
X242460Y350204D01*
X243609Y349728D01*
X244843Y349566D01*
X246076Y349728D01*
X247225Y350204D01*
X248212Y350961D01*
X248969Y351948D01*
X249445Y353098D01*
X249561Y353975D01*
Y353975D01*
X249590Y354199D01*
X249593D01*
X249610D01*
X249639D01*
X250046D01*
X250076Y354199D01*
X250092Y354199D01*
X250095D01*
X250124Y353975D01*
Y353975D01*
X250240Y353098D01*
X250716Y351948D01*
X251473Y350961D01*
X252460Y350204D01*
X253609Y349728D01*
X254843Y349566D01*
X256076Y349728D01*
X257225Y350204D01*
X258212Y350961D01*
X258969Y351948D01*
X259445Y353098D01*
X259561Y353975D01*
Y353975D01*
X259591Y354199D01*
X259593D01*
X259610D01*
X259639D01*
X260047D01*
X260075Y354199D01*
X260092Y354199D01*
X260095D01*
X260124Y353975D01*
Y353975D01*
X260240Y353098D01*
X260716Y351948D01*
X261473Y350961D01*
X262460Y350204D01*
X263609Y349728D01*
X264843Y349566D01*
X266076Y349728D01*
X267225Y350204D01*
X268212Y350961D01*
X268969Y351948D01*
X269445Y353098D01*
X269561Y353975D01*
Y353975D01*
X269590Y354199D01*
X269593D01*
X269610D01*
X269639D01*
X270046D01*
X270075Y354199D01*
X270092Y354199D01*
X270095D01*
X270124Y353975D01*
Y353975D01*
X270240Y353098D01*
X270716Y351948D01*
X271473Y350961D01*
X272460Y350204D01*
X273609Y349728D01*
X274843Y349566D01*
X276076Y349728D01*
X277225Y350204D01*
X278212Y350961D01*
X278969Y351948D01*
X279445Y353098D01*
X279561Y353975D01*
Y353975D01*
X279591Y354199D01*
X279593D01*
X279610D01*
X279639D01*
X280047D01*
D02*
G37*
%LPC*%
G36*
X275197Y328937D02*
X272244D01*
Y323425D01*
X275197D01*
Y328937D01*
D02*
G37*
G36*
X271063D02*
X268110D01*
Y323425D01*
X271063D01*
Y328937D01*
D02*
G37*
%LPD*%
D10*
X98425Y118110D02*
D03*
Y86614D02*
D03*
X161417Y118110D02*
D03*
Y86614D02*
D03*
X232283Y118110D02*
D03*
Y86614D02*
D03*
X295276Y118110D02*
D03*
Y86614D02*
D03*
D11*
X307740Y249450D02*
X308465Y250175D01*
X307740Y221540D02*
Y249450D01*
X307087Y255140D02*
X308465Y253762D01*
Y250175D02*
Y253762D01*
X311024Y268682D02*
X326772Y263780D01*
X311024Y268682D02*
Y282564D01*
X327606Y299147D01*
X282184Y195984D02*
X307740Y221540D01*
X307087Y255140D02*
Y287682D01*
X318617Y299213D01*
X302825Y276447D02*
Y314636D01*
X271654Y245276D02*
X302825Y276447D01*
X297244Y277559D02*
X302988Y283302D01*
X302825Y314636D02*
X311024Y322835D01*
X318617D01*
X271654Y232835D02*
Y245276D01*
X295276Y277559D02*
X297244D01*
X272716Y195984D02*
X282184D01*
X262479Y206221D02*
X272716Y195984D01*
X252500Y206221D02*
X262479D01*
X250787Y204508D02*
X252500Y206221D01*
X250787Y197500D02*
Y204508D01*
Y197500D02*
X287185Y161102D01*
X295276D01*
Y86614D02*
X325000D01*
X327500Y89114D01*
Y139200D01*
X273078Y193622D02*
X327500Y139200D01*
X263386Y193622D02*
X273078D01*
X255906Y201102D02*
X263386Y193622D01*
X219409Y161417D02*
X224927Y155900D01*
X259500D01*
X261100Y157500D01*
Y181800D01*
X248425Y194475D02*
X261100Y181800D01*
X248425Y194475D02*
Y207008D01*
X250000Y208583D01*
X268110D01*
X275591Y201102D01*
X294291Y240521D02*
Y251969D01*
Y240521D02*
X295213Y239600D01*
Y228347D02*
Y239600D01*
X211654Y317500D02*
Y322835D01*
Y317500D02*
X214611Y314543D01*
X279385D01*
X284843Y320000D01*
Y354331D01*
X309573Y329600D01*
X323600D01*
X327606Y325594D01*
Y299147D02*
Y325594D01*
X294843Y354331D02*
X304469D01*
X329969Y328831D01*
Y294536D02*
Y328831D01*
X326772Y275591D02*
X329969Y294536D01*
X111654Y224685D02*
X140236Y196102D01*
X111654Y224685D02*
Y232835D01*
X140236Y196102D02*
X150534Y206400D01*
X199300D01*
X244598Y161102D01*
X255906D01*
X101654Y219246D02*
Y232835D01*
Y219246D02*
X105200Y215700D01*
Y191139D02*
Y215700D01*
Y191139D02*
X130236Y166102D01*
X85039Y191300D02*
X110236Y166102D01*
X77900Y191300D02*
X85039D01*
X75512Y193688D02*
X77900Y191300D01*
X75512Y193688D02*
Y198412D01*
X91654Y214554D01*
Y232835D01*
X73150Y183189D02*
X90236Y166102D01*
X73150Y183189D02*
Y207550D01*
X81654Y216054D01*
Y232835D01*
X216786Y86614D02*
X232283D01*
X200900Y102500D02*
X216786Y86614D01*
X200900Y102500D02*
Y142908D01*
X219409Y161417D01*
X161417Y86614D02*
X191250D01*
X192800Y88164D01*
Y133700D01*
X174900Y151600D02*
X192800Y133700D01*
X174900Y151600D02*
Y195648D01*
X180039Y200787D01*
X67500Y86614D02*
X98425D01*
X66200Y87914D02*
X67500Y86614D01*
X66200Y87914D02*
Y152066D01*
X80236Y166102D01*
Y196102D02*
X95800Y211666D01*
Y330721D01*
X94921Y331600D02*
X95800Y330721D01*
X94921Y331600D02*
Y354331D01*
X241654Y322835D02*
Y347520D01*
X234843Y354331D02*
X241654Y347520D01*
X101654Y322835D02*
Y351063D01*
X104921Y354331D01*
X111654Y322835D02*
Y351063D01*
X114921Y354331D01*
X121654Y322835D02*
Y351063D01*
X124921Y354331D01*
X131654Y322835D02*
Y351063D01*
X134921Y354331D01*
X141654Y322835D02*
Y351063D01*
X144921Y354331D01*
X151654Y322835D02*
Y351063D01*
X154921Y354331D01*
X161654Y322835D02*
Y351063D01*
X164921Y354331D01*
X98425Y118110D02*
X161417D01*
X232283D02*
X295276D01*
X171654Y322835D02*
Y351063D01*
X174921Y354331D01*
X201654Y322835D02*
Y355000D01*
X209154Y362500D01*
X266673D01*
X274843Y354331D01*
D12*
X326772Y240157D02*
D03*
Y251969D02*
D03*
X318695Y310433D02*
D03*
X318617Y322835D02*
D03*
Y299213D02*
D03*
X326772Y275591D02*
D03*
Y263780D02*
D03*
X295276Y277559D02*
D03*
Y305118D02*
D03*
D13*
X303213Y228347D02*
D03*
X295213D02*
D03*
D14*
X80236Y166102D02*
D03*
D15*
X90236D02*
D03*
X100236D02*
D03*
X110236D02*
D03*
X120236D02*
D03*
X130236D02*
D03*
X140236D02*
D03*
X80236Y196102D02*
D03*
X90236D02*
D03*
X100236D02*
D03*
X110236D02*
D03*
X120236D02*
D03*
X130236D02*
D03*
X140236D02*
D03*
D16*
X190039Y200787D02*
D03*
X180039D02*
D03*
X229409D02*
D03*
X219409D02*
D03*
X190039Y161417D02*
D03*
X180039D02*
D03*
X229409D02*
D03*
X219409D02*
D03*
D17*
X294843Y354331D02*
D03*
D18*
X284843D02*
D03*
X274843D02*
D03*
X264843D02*
D03*
X254843D02*
D03*
X244843D02*
D03*
X234843D02*
D03*
X224843D02*
D03*
D19*
X84921D02*
D03*
X94921D02*
D03*
X104921D02*
D03*
X114921D02*
D03*
X124921D02*
D03*
X134921D02*
D03*
X144921D02*
D03*
X154921D02*
D03*
X164921D02*
D03*
D20*
X174921D02*
D03*
D21*
X271654Y322835D02*
D03*
D22*
X261654D02*
D03*
X251654D02*
D03*
X241654D02*
D03*
X231654D02*
D03*
X221654D02*
D03*
X211654D02*
D03*
X201654D02*
D03*
X191654D02*
D03*
X181654D02*
D03*
X171654D02*
D03*
X161654D02*
D03*
X151654D02*
D03*
X141654D02*
D03*
X131654D02*
D03*
X121654D02*
D03*
X111654D02*
D03*
X101654D02*
D03*
X91654D02*
D03*
X81654D02*
D03*
X271654Y232835D02*
D03*
X261654D02*
D03*
X251654D02*
D03*
X241654D02*
D03*
X231654D02*
D03*
X221654D02*
D03*
X211654D02*
D03*
X201654D02*
D03*
X191654D02*
D03*
X181654D02*
D03*
X171654D02*
D03*
X161654D02*
D03*
X151654D02*
D03*
X141654D02*
D03*
X131654D02*
D03*
X121654D02*
D03*
X111654D02*
D03*
X101654D02*
D03*
X91654D02*
D03*
X81654D02*
D03*
D23*
X304134Y251969D02*
D03*
X294291D02*
D03*
D24*
X255906Y201102D02*
D03*
Y161102D02*
D03*
X275591Y201102D02*
D03*
Y161102D02*
D03*
X295276Y201102D02*
D03*
Y161102D02*
D03*
X314961Y201102D02*
D03*
Y161102D02*
D03*
M02*
